<svg xmlns="http://www.w3.org/2000/svg" xmlns:xlink="http://www.w3.org/1999/xlink" width="24" height="24" viewBox="0 0 24 24">
    <defs>
        <path id="a" d="M24 0H0v24h24z"/>
    </defs>
    <g fill="none" fill-rule="evenodd">
        <mask id="b" fill="#fff">
            <use xlink:href="#a"/>
        </mask>
        <path fill="#7C7C7C" d="M13 11h7.007c.548 0 .993.444.993 1 0 .552-.445 1-.993 1H13v7.007A.994.994 0 0 1 12 21c-.552 0-1-.445-1-.993V13H3.993A.994.994 0 0 1 3 12c0-.552.445-1 .993-1H11V3.993A.994.994 0 0 1 12 3c.552 0 1 .445 1 .993V11z" mask="url(#b)" transform="rotate(45 12 12)"/>
        <path d="M24 24H0V0h24z"/>
    </g>
</svg>
